HIERARCHY
ROOT Pelvis
{
	OFFSET 0.000000 0.000000 0.000000
	CHANNELS 6 Xposition Yposition Zposition Xrotation Yrotation Zrotation
	JOINT LeftUpLeg_virtual
	{
		OFFSET 0.000000 0.000000 0.000000
		CHANNELS 3 Xrotation Yrotation Zrotation
		JOINT LeftUpLeg
		{
			OFFSET 18.735201 -5.666702 -4.541200
			CHANNELS 3 Xrotation Yrotation Zrotation
			JOINT LeftLeg
			{
				OFFSET -0.021200 -31.938179 0.493100
				CHANNELS 3 Xrotation Yrotation Zrotation
				JOINT LeftFoot
				{
					OFFSET 0.021200 -31.938179 -4.336299
					CHANNELS 3 Xrotation Yrotation Zrotation
					JOINT LeftToeBase
					{
						OFFSET 0.943001 -26.722000 15.023500
						CHANNELS 3 Xrotation Yrotation Zrotation
						End Site
						{
							OFFSET 0 0 0
						}
					}
				}
			}
		}
	}
	JOINT RightUpLeg_virtual
	{
		OFFSET 0.000000 0.000000 0.000000
		CHANNELS 3 Xrotation Yrotation Zrotation
		JOINT RightUpLeg
		{
			OFFSET -18.735201 -5.666702 -4.541200
			CHANNELS 3 Xrotation Yrotation Zrotation
			JOINT RightLeg
			{
				OFFSET 0.018946 -31.938133 0.493100
				CHANNELS 3 Xrotation Yrotation Zrotation
				JOINT RightFoot
				{
					OFFSET -0.018946 -31.938126 -4.336299
					CHANNELS 3 Xrotation Yrotation Zrotation
					JOINT RightToeBase
					{
						OFFSET -0.943001 -26.722004 15.023500
						CHANNELS 3 Xrotation Yrotation Zrotation
						End Site
						{
							OFFSET 0 0 0
						}
					}
				}
			}
		}
	}
	JOINT Hips_virtual
	{
		OFFSET 0.000000 0.000000 0.000000
		CHANNELS 3 Xrotation Yrotation Zrotation
		JOINT Hips
		{
			OFFSET -0.000000 -0.000000 -0.000000
			CHANNELS 3 Xrotation Yrotation Zrotation
			JOINT Spine
			{
				OFFSET 0.000000 10.199997 -0.299500
				CHANNELS 3 Xrotation Yrotation Zrotation
				JOINT Spine1
				{
					OFFSET 0.000000 11.900002 -1.516600
					CHANNELS 3 Xrotation Yrotation Zrotation
					JOINT Spine2
					{
						OFFSET 0.000000 13.600006 -2.842500
						CHANNELS 3 Xrotation Yrotation Zrotation
						JOINT Neck_virtual
						{
							OFFSET 0.000000 0.000000 0.000000
							CHANNELS 3 Xrotation Yrotation Zrotation
							JOINT Neck
							{
								OFFSET 0.000000 9.624100 -2.890100
								CHANNELS 3 Xrotation Yrotation Zrotation
								JOINT Head
								{
									OFFSET 0.000000 14.068802 -1.351900
									CHANNELS 3 Xrotation Yrotation Zrotation
									End Site
									{
										OFFSET 0 0 0
									}
								}
							}
						}
						JOINT LeftShoulder_virtual
						{
							OFFSET 0.000000 0.000000 0.000000
							CHANNELS 3 Xrotation Yrotation Zrotation
							JOINT LeftShoulder
							{
								OFFSET 15.263000 10.923401 -0.547700
								CHANNELS 3 Xrotation Yrotation Zrotation
								JOINT LeftArm
								{
									OFFSET 25.438599 -2.830597 -13.032500
									CHANNELS 3 Xrotation Yrotation Zrotation
									JOINT LeftForeArm
									{
										OFFSET 29.960503 0.000000 0.000000
										CHANNELS 3 Xrotation Yrotation Zrotation
										JOINT LeftHand
										{
											OFFSET 27.849251 0.000000 0.000000
											CHANNELS 3 Xrotation Yrotation Zrotation
											End Site
											{
												OFFSET 0 0 0
											}
										}
									}
								}
							}
						}
						JOINT RightShoulder_virtual
						{
							OFFSET 0.000000 0.000000 0.000000
							CHANNELS 3 Xrotation Yrotation Zrotation
							JOINT RightShoulder
							{
								OFFSET -15.263000 10.923401 -0.547700
								CHANNELS 3 Xrotation Yrotation Zrotation
								JOINT RightArm
								{
									OFFSET -25.438599 -2.830597 -13.032500
									CHANNELS 3 Xrotation Yrotation Zrotation
									JOINT RightForeArm
									{
										OFFSET -29.960503 0.000000 0.000000
										CHANNELS 3 Xrotation Yrotation Zrotation
										JOINT RightHand
										{
											OFFSET -27.849251 0.000000 0.000000
											CHANNELS 3 Xrotation Yrotation Zrotation
											End Site
											{
												OFFSET 0 0 0
											}
										}
									}
								}
							}
						}
					}
				}
			}
		}
	}
}
MOTION
Frames: 5
Frame Time: 0.03333333
-8.090343 93.425385 7.576309 0.000000 0.000000 0.000000 -4.026869 -7.449628 -0.681568 -7.953463 4.406231 10.521903 23.679675 4.703109 -5.166701 -7.619474 5.547670 -0.029876 0.000000 0.000000 0.000000 -4.306208 -6.421764 -0.509850 -6.622509 -7.028108 -9.029724 25.210903 -9.546529 1.384844 -4.569980 -0.792204 3.739643 0.000000 0.000000 0.000000 -4.326036 -6.626071 -0.349238 -0.802306 -0.033540 -0.094926 4.255261 4.641632 -0.772956 2.621444 0.502720 0.845557 0.000000 0.000000 0.000000 1.110185 1.210895 0.286332 3.390297 -0.715303 0.166080 0.000000 0.000000 0.000000 0.676043 1.194367 0.361678 0.709681 -9.068906 -12.536068 1.253096 -13.233216 -52.051434 -7.244634 -13.188198 -10.155972 0.000000 0.000000 0.000000 1.243136 1.465445 0.343671 3.838883 9.338549 11.269646 1.288980 2.256224 58.383398 4.964378 30.469716 10.852722 0.000000 0.000000 0.000000 
-8.159981 93.417618 7.433104 0.000000 0.000000 0.000000 -4.096069 -7.221736 -0.606445 -8.016058 4.398372 10.481560 23.636092 4.643353 -5.224368 -7.577224 5.576150 -0.250173 0.000000 0.000000 0.000000 -4.378279 -6.224831 -0.435719 -6.452374 -7.047658 -9.031598 25.070535 -9.492299 1.376682 -4.831638 -0.872605 3.750523 0.000000 0.000000 0.000000 -4.381332 -6.346899 -0.285590 -0.808167 -0.000843 -0.093535 4.224513 4.777691 -0.684252 2.621253 0.577887 0.848803 0.000000 0.000000 0.000000 1.085663 1.251337 0.267581 3.421167 -0.718934 0.123962 0.000000 0.000000 0.000000 0.688445 1.258904 0.432959 0.705459 -8.679821 -12.566516 1.687539 -12.646267 -52.244841 -7.107127 -12.575572 -10.119949 0.000000 0.000000 0.000000 1.312293 1.518075 0.359396 3.873932 9.488839 11.150785 0.445982 2.984088 57.947154 4.919809 30.879415 10.822625 0.000000 0.000000 0.000000 
-8.298376 93.397720 7.189766 0.000000 0.000000 0.000000 -4.305815 -6.694973 -0.453085 -8.322510 4.394770 10.476267 23.919346 4.502749 -5.365022 -7.589215 5.399531 -0.711174 0.000000 0.000000 0.000000 -4.597942 -5.745156 -0.275010 -6.372683 -7.046079 -9.001878 25.421662 -9.522799 1.325627 -5.433784 -1.219021 3.447186 0.000000 0.000000 0.000000 -4.565877 -5.803076 -0.145813 -0.807852 0.010402 -0.092305 4.330465 4.960057 -0.605141 2.639544 0.646556 0.899904 0.000000 0.000000 0.000000 1.064691 1.310139 0.302583 3.426841 -0.732617 0.075188 0.000000 0.000000 0.000000 0.724252 1.331300 0.572783 0.730574 -8.424409 -12.718476 2.188547 -11.556754 -52.569729 -6.761546 -11.735153 -9.910133 0.000000 0.000000 0.000000 1.393714 1.579136 0.433930 3.931325 9.640749 11.151629 -0.539031 4.101521 57.225927 4.853299 31.611195 10.746918 0.000000 0.000000 0.000000 
-8.474129 93.371704 6.885416 0.000000 0.000000 0.000000 -4.622321 -5.951981 -0.239189 -8.810035 4.387939 10.501548 24.475684 4.308302 -5.564679 -7.621448 5.059015 -1.313788 0.000000 0.000000 0.000000 -4.930171 -5.041371 -0.056047 -6.374334 -7.060327 -8.967228 26.173828 -9.619915 1.253054 -6.243352 -1.753002 2.922594 0.000000 0.000000 0.000000 -4.865621 -5.112802 0.048537 -0.802927 0.000680 -0.092639 4.555302 5.156708 -0.564164 2.692535 0.690783 0.987625 0.000000 0.000000 0.000000 1.064681 1.371753 0.389081 3.409353 -0.753393 0.030395 0.000000 0.000000 0.000000 0.774141 1.395388 0.747697 0.779547 -8.350256 -12.965562 2.712947 -10.186641 -52.931910 -6.283107 -10.836866 -9.590378 0.000000 0.000000 0.000000 1.479643 1.635326 0.539018 3.997865 9.752570 11.292398 -1.348923 5.344017 56.323027 4.777666 32.667582 10.652927 0.000000 0.000000 0.000000 
-8.675436 93.336578 6.560333 0.000000 0.000000 0.000000 -5.012607 -5.108889 -0.005455 -9.376695 4.368864 10.559553 25.235297 4.088580 -5.777324 -7.658749 4.637688 -1.916177 0.000000 0.000000 0.000000 -5.336984 -4.205429 0.185686 -6.393509 -7.114486 -8.922065 27.108491 -9.740934 1.176419 -7.002016 -2.353451 2.333727 0.000000 0.000000 0.000000 -5.249753 -4.340697 0.263483 -0.798309 -0.013014 -0.093119 4.846555 5.365036 -0.565064 2.769231 0.717514 1.085144 0.000000 0.000000 0.000000 1.086302 1.421301 0.503052 3.377872 -0.778522 -0.010154 0.000000 0.000000 0.000000 0.843252 1.445182 0.920074 0.857856 -8.408841 -13.249554 3.310723 -8.679808 -53.292636 -5.737238 -9.979941 -9.229222 0.000000 0.000000 0.000000 1.566489 1.677822 0.638218 4.049648 9.799262 11.508760 -1.936787 6.506833 55.396751 4.679781 34.074489 10.566136 0.000000 0.000000 0.000000 
